<svg id="Layer_1" xmlns="http://www.w3.org/2000/svg" width="97" height="73" viewBox="0 0 97 73"><style>.st0{fill:#71B4D5;}</style><path class="st0" d="M79.1 11.4H68.6C67.5 5.2 59.5 1 48.5 1c-11 0-19 4.2-20.1 10.4H17.9C11.3 11.4 6 16.7 6 23.2v37C6 66.7 11.3 72 17.9 72h61.2C85.7 72 91 66.7 91 60.2v-37c0-6.5-5.3-11.8-11.9-11.8zM48.5 4.1c8.7 0 15.5 3 16.9 7.2H31.6c1.4-4.2 8.2-7.2 16.9-7.2zm39.4 56.1c0 4.8-4 8.7-8.8 8.7H17.9c-4.9 0-8.8-3.9-8.8-8.7v-37c0-4.8 4-8.7 8.8-8.7h61.2c4.9 0 8.8 3.9 8.8 8.7v37zM51.1 34.4c0-1.5.1-2.3 2.3-2.3h2.9v-5.7h-4.6c-5.5 0-7.4 2.8-7.4 7.4v3.4h-3.4V43h3.4v16.6h6.9V43h4.6l.6-5.7h-5.2v-2.9z"/></svg>