<svg xmlns="http://www.w3.org/2000/svg" width="74" height="74" viewBox="0 0 74 74"><path fill="#71B4D5" d="M37 .964C17.098.964.964 17.098.964 37S17.098 73.036 37 73.036 73.036 56.902 73.036 37 56.902.964 37 .964zm0 69.15C18.712 70.114 3.886 55.288 3.886 37 3.886 18.71 18.712 3.886 37 3.886c18.29 0 33.114 14.826 33.114 33.114 0 18.288-14.825 33.114-33.114 33.114zm2.27-40.662c0-1.487.14-2.29 2.27-2.29h2.854v-5.708h-4.562c-5.486 0-7.416 2.773-7.416 7.415V32.3H29v5.707h3.416v16.56h6.853V38.01h4.56l.6-5.707h-5.16V29.45z"/></svg>