<svg xmlns="http://www.w3.org/2000/svg" width="75" height="75" viewBox="0 0 75 75"><path fill-rule="evenodd" clip-rule="evenodd" fill="#6EB4D7" d="M37.5 73.056c-19.637 0-35.556-15.918-35.556-35.557 0-19.64 15.92-35.56 35.556-35.56S73.056 17.86 73.056 37.5 57.136 73.056 37.5 73.056zm24.438-13.92c4.84-5.473 7.89-12.568 8.188-20.38H56.108c-.12 6.327-1.13 12.22-2.794 17.267 5.39 1.432 8.624 3.076 8.624 3.076v.032zm-2.05 2.123c-1.644-.717-4.23-1.7-7.533-2.58-1.78 4.435-4.102 8.053-6.786 10.49 5.46-1.39 10.35-4.168 14.32-7.916zm-21.07 8.79c4.744-.7 8.65-5.16 11.207-11.942-3.25-.725-7.036-1.274-11.208-1.38V70.05zm0-16.09c4.56.105 8.662.708 12.1 1.478 1.443-4.788 2.29-10.48 2.392-16.688H38.817v15.212zm14.49-17.97c-.124-6.223-1.012-11.92-2.497-16.7-3.41.764-7.47 1.36-11.99 1.466V35.99h14.49zm-17.25 0V20.76c-4.475-.103-8.508-.685-11.912-1.433-1.465 4.77-2.332 10.457-2.452 16.665h14.364zM21.69 38.75c.1 6.2.95 11.89 2.39 16.674 3.418-.76 7.476-1.352 11.98-1.46v-15.21H21.69zm14.37 31.29V56.73c-4.12.1-7.87.635-11.092 1.347 2.536 6.744 6.4 11.204 11.094 11.967zm-6.624-.87c-2.692-2.442-5.02-6.074-6.8-10.53-3.305.875-5.894 1.86-7.56 2.577 3.975 3.766 8.88 6.56 14.36 7.952zm-16.43-10.105c.352-.174 3.538-1.71 8.677-3.063-1.66-5.045-2.67-10.93-2.79-17.25H4.877c.295 7.78 3.322 14.85 8.126 20.313zm-8.12-23.072h14.012c.142-6.324 1.176-12.205 2.86-17.234-4.66-1.217-7.744-2.59-8.607-3-4.84 5.43-7.91 12.47-8.263 20.233zm10.36-22.383c1.698.72 4.25 1.673 7.474 2.516 1.77-4.35 4.065-7.898 6.712-10.3-5.4 1.37-10.242 4.103-14.185 7.785zm9.81 3.078c3.2.7 6.92 1.218 11 1.313V4.96c-4.637.753-8.463 5.123-11 11.733zm13.76-11.743v13.052c4.114-.11 7.853-.648 11.067-1.36-2.576-6.63-6.444-10.99-11.066-11.692zm13.438 11.113c3.227-.856 5.765-1.813 7.42-2.52-3.928-3.647-8.743-6.35-14.105-7.71 2.63 2.387 4.913 5.91 6.68 10.23zm9.523-.377c-.54.27-3.65 1.74-8.55 3.04C54.92 23.76 55.96 29.656 56.103 36h14.012c-.355-7.8-3.456-14.875-8.338-20.314z"/></svg>