<svg width="24" height="24" viewBox="0 0 24 24" xmlns="http://www.w3.org/2000/svg"><path d="M12.3250705 23C6.63114146 23 2 18.2892259 2 12.4992453c0-1.1154316.17218346-2.19011.48983227-3.199885.1662461.24150077.35178863.4543233.5313938.64601453.57295532.61280817 1.20528425 1.17429737 1.88511206 1.66786457.05046757.0362251.1217159.0890534.1588244.1237692.0252338.1147128.0148434.282254.00445303.4724358-.0252338.4030044-.0593736.9554374.2404631 1.5365486.19444858.3788543.46756718.6701646.70951463.9267591.23452574.250557.436396.4663983.49280094.6762021.04156153.1494286.02374944.369798.00593736.6022425-.02523378.3199885-.05343625.683749.0371085 1.0746784.1217159.5252641.41413093.9146841.67092178 1.2588227.16327743.2173506.31616447.4211169.38295978.60828.05046756.1449004.07124833.3396104.09351343.5463954.0222651.2067851.04749888.4407389.10835683.6822397.1810895.7229929.7718569 1.4173075 1.5689476 1.4173075.04156152 0 .08609173-.0015093.1291376-.0060375.82529317-.0769784 1.39082677-.8256307 1.47840287-1.9561561.013359-.1826349.0504675-.6656365.1424966-.771293.0282025-.0120751.0979665-.0286782.1484341-.0422627.218198-.0528283.5477215-.1358441.8208401-.4196075.501707-.5222454.3636633-1.1773162.2805403-1.5697549-.0252338-.1177316-.0534363-.2505571-.0504676-.3199885.0029687-.1871631.3799911-.5131891.5210034-.6369583l1.4160606-1.2286351c.5506902-.4739452.7570135-1.2980665.5120974-2.051247-.1736678-.5373392-.5595963-1.0218501-1.1162239-1.3976856-.6857651-.464889-1.4279352-.58413-2.0350304-.3275354-.2063233.087544-.3725694.206785-.50616.3033853-.0415615.0301876-.0949978.0679221-.1380436.0966003-.0207808-.0226407-.0430459-.0543377-.065311-.0950909-.0504676-.0950909-.0964821-.2173507-.1454654-.3486667-.0638266-.1720693-.1350749-.3682887-.2434317-.564508-.57295537-1.05052832-1.50957404-1.16675056-2.19385488-1.2527852-.11726288-.01358442-.2285884-.02716884-.33842957-.0452814-.575924-.09056278-1.16223838-.34715733-1.61199347-.70186156.16476177-.0603752.36663203-.10716596.47498887-.10263782.07867003.00301875.17069912.0135844.26866558.02565945.27905596.03169697.62639157.07245023 1.00192964-.03471573.3770224-.10716596.65607837-.32904478.88021375-.5071516.06382662-.0513189.12468457-.09810967.17960516-.13886292.10538816-.0739596.30874276-.09207216.52545644-.11018472.53733118-.0452814 1.65652368-.1403723 1.81534808-1.72220226.0771857-.78336807-.2033546-1.48372026-.4289743-2.0467189-.1885112-.4694171-.3710851-.93430604-.5299095-1.41579817C11.1420514 2.0528283 11.7283657 2 12.3250705 2c1.2824699 0 2.5100193.23999137 3.6425709.67469273-.0341398.03471574-.0667953.0679221-.1009352.10263782-.3443669.3426292-.7006085.69733343-.9455247 1.0203407-.1039038.13584417-.2775716.36526988-.3280392.69280528-.0860917.5584705.2404632.98562496.3814755 1.1682599.2078076.27319773.5551432.72752103 1.1310672.87393086.1291376.03169696.2523379.04528138.3710851.04528138.4334273 0 .803028-.18414432 1.0880214-.3275354.1647617-.0815065.3354608-.16754115.436396-.17508804.0979664-.00905628.2686656.04830015.4334273.1041472.2419475.07999712.5165504.17206928.8386522.18414432.4260057.0150938.8015437-.1418817 1.0984118-.43621074C21.057444 6.79378998 21.6096185 7.77186804 22 8.8314526c-.0549206.00150938-.1113255.00150938-.1617931.00301876-.1514027.00150938-.3235861.00301876-.510613.01811255-.4334274.03471575-.7718569-.09358153-1.2008312-.25508516-.2938994-.1116941-.627876-.2369726-1.0197418-.31546036-1.0553659-.21433192-2.1374499.3713074-2.7564197 1.48975778-.1810895.32451664-1.0434912 2.00143754-.3102271 3.03083444.2760872.3848919.6442036.6097894.9410716.790915.3963189.2415008.8074811.4920578 1.2720796.6822396.0994508.0407533.1974173.0784878.292415.1132035.2820247.1056566.5744397.2158413.6783435.3607418.0593736.0815065.1202316.2656508.07867.6762021-.0282024.2747071-.1365593.5750737-.2508535.8920434-.2820246.7818587-.6694374 1.8535183.2360101 2.9055559.1632775.1886725.3458513.3486668.5447529.4784734C17.9477512 21.7306117 15.2803919 23 12.3250705 23M20.4855 3.5154C18.219 1.2489 15.2055-.0006 12-.0006s-6.219 1.2495-8.4855 3.516C1.248 5.7819 0 8.7954 0 11.9994c0 3.2055 1.248 6.219 3.5145 8.4855 2.2665 2.2665 5.28 3.5145 8.4855 3.5145s6.219-1.248 8.4855-3.5145C22.752 18.2184 24 15.2049 24 11.9994c0-3.204-1.248-6.2175-3.5145-8.484" fill="#FFF" fill-rule="evenodd"/></svg>